<svg xmlns="http://www.w3.org/2000/svg" viewBox="0 0 809 580">
	<g fill="#000000ff">
		<path d="M269.4,21.2c83.4,166.9,165.9,332,249.1,498.4C598,360.4,676.7,202.7,755.8,44.2c-7.4-4.4-14.8-8.7-23.3-13.8c22.9-10.1,45.1-19.9,68.7-30.4c2.9,25,5.7,49.1,8.6,74.6c-7.1-3.8-13.4-7.3-20.7-11.2c-4.5,8.4-9.1,16.3-13.2,24.5c-78,154.8-156,309.6-233.7,464.6c-4,7.9-8.7,13.8-17,17.1c-6.3,2.5-12.2,6-18.9,9.4c-78.9-157.8-157.7-315.4-236.8-473.7C190,263.9,110.9,421.4,31.3,580c-10.5-6.2-20.7-12.2-31.3-18.4C89.7,381.7,179.1,202.4,269.4,21.2z"/>
		<path d="M580.3,356c-41.9-83.9-83.2-166.8-125.2-250.8c-17.3,34.6-34,68-50.9,101.8c-11.3-5.1-22.2-9.9-34-15.2c28.1-56.6,56-112.8,84.4-170.1c1.9,3.2,3.3,5.3,4.4,7.6c46.3,92.5,92.5,185,138.9,277.4c2.7,5.4,2.6,9.5-0.2,14.7C591.8,332.4,586.5,343.7,580.3,356z"/>
		<path d="M691.9,579.4c-9.2-18.3-18.2-36.1-27.1-54c-13.8-27.5-27.7-55-41-82.7c-1.7-3.6-1.8-9.3-0.2-13c5.1-11.7,11.2-22.8,17.7-35.6c28.4,56.7,56.1,112,84.1,168C714.3,567.8,703.4,573.5,691.9,579.4z"/>
	</g>
</svg>